# xmcd
#
# Track frame offsets:
#	150
#	18098
#	37506
#	48844
#	63558
#	78442
#	92352
#	108134
#	124688
#	142952
#	160250
#
# Disc length: 2301 seconds
# Revision: 0
# Processed by: cddbd v1.5.2PL0 Copyright (c) Steve Scherf et al.
# Submitted via: dBpowerAMP V12.0
#
DISCID=7308fb0b
DTITLE=Lonesome Sundown - Been Gone too Long [Hightone] (t)
DYEAR=1991
DGENRE=Blues
TTITLE0=They Call Me Sundown
TTITLE1=One More Night
TTITLE2=Louisiana Lover Man
TTITLE3=Dealin' from the Bottom of the Deck
TTITLE4=Midnight Blues Again
TTITLE5=Just Got to Know
TTITLE6=Black Cat Bone
TTITLE7=I Betcha
TTITLE8=You Don't Miss Your Water
TTITLE9=If You Ain't Been to Houston
TTITLE10=This is the Blues
EXTD=
EXTT0=
EXTT1=
EXTT2=
EXTT3=
EXTT4=
EXTT5=
EXTT6=
EXTT7=
EXTT8=
EXTT9=
EXTT10=
PLAYORDER=
